<?xml version="1.0" standalone="no"?>
<!DOCTYPE svg PUBLIC "-//W3C//DTD SVG 20010904//EN"
 "http://www.w3.org/TR/2001/REC-SVG-20010904/DTD/svg10.dtd">
<svg version="1.0" xmlns="http://www.w3.org/2000/svg"
 width="1024.000000pt" height="1024.000000pt" viewBox="0 0 1024.000000 1024.000000"
 preserveAspectRatio="xMidYMid meet">

<g transform="translate(0.000000,1024.000000) scale(0.100000,-0.100000)"
fill="#000000" stroke="none">
<path d="M4996 9834 c-132 -32 -271 -140 -329 -256 -103 -205 -67 -437 93
-598 72 -72 139 -113 221 -133 l54 -14 3 -263 2 -262 -26 -20 c-74 -59 -107
-121 -107 -199 1 -31 8 -70 17 -86 15 -30 92 -103 108 -103 4 0 8 -151 8 -335
l0 -335 -585 0 -585 0 0 649 0 649 44 26 c49 29 102 101 112 153 28 152 -56
285 -198 315 -151 31 -288 -91 -288 -256 1 -85 59 -184 133 -222 l27 -15 0
-649 0 -649 -316 -3 -316 -3 -24 -28 -24 -28 0 -290 0 -289 -193 0 -192 0
-163 163 -162 162 0 133 0 133 44 18 c98 42 156 136 156 249 -1 149 -99 251
-252 260 -55 3 -76 0 -120 -21 -67 -30 -122 -85 -144 -143 -20 -54 -15 -173 9
-221 21 -41 81 -99 118 -115 27 -12 29 -16 29 -73 l0 -60 -304 304 c-253 252
-306 310 -316 345 -16 54 -42 90 -85 116 -40 25 -45 45 -12 54 39 10 99 68
123 120 42 89 25 205 -39 275 -60 66 -198 91 -282 52 -153 -71 -170 -282 -32
-408 26 -24 51 -43 57 -43 22 0 6 -27 -33 -55 -83 -60 -110 -168 -64 -256 50
-95 166 -135 257 -89 l43 22 546 -546 547 -546 232 0 232 0 0 -330 0 -330
-311 0 -311 0 -20 25 c-41 53 -134 82 -202 64 -91 -24 -146 -97 -146 -194 0
-215 273 -283 371 -92 l19 37 300 0 300 0 0 -90 0 -90 -779 0 -779 0 -11 46
c-7 26 -23 68 -36 95 -24 45 -25 58 -25 210 l0 162 39 42 c108 117 28 294
-127 282 -90 -6 -143 -62 -150 -155 -5 -68 12 -109 58 -144 29 -21 30 -24 30
-111 l0 -88 -28 20 c-40 28 -139 59 -213 66 -136 14 -299 -46 -399 -145 -265
-266 -163 -731 188 -849 83 -28 225 -29 314 -1 163 50 299 189 349 358 l12 42
779 0 778 0 0 -230 0 -230 -400 0 -400 0 -19 38 c-23 44 -72 93 -121 118 -25
13 -57 19 -110 19 -65 0 -82 -4 -128 -30 -92 -50 -138 -141 -129 -251 8 -105
76 -192 174 -225 49 -16 150 -6 199 19 47 24 94 74 113 120 l13 32 404 0 404
0 0 -290 0 -290 -643 0 -644 0 -18 40 c-23 51 -90 113 -141 131 -143 48 -292
-41 -324 -195 -43 -210 173 -382 360 -286 44 22 95 81 112 128 l12 32 643 0
643 0 0 -325 0 -325 -365 0 c-269 0 -365 3 -365 12 0 22 -52 78 -90 98 -24 12
-59 20 -90 20 -142 0 -235 -136 -186 -272 l13 -36 -191 -191 -191 -191 -45 16
c-123 43 -270 -34 -315 -165 -42 -123 5 -245 117 -307 46 -25 64 -29 128 -29
57 0 85 6 115 22 112 60 163 192 120 314 l-15 43 197 198 198 198 55 0 c70 0
116 23 155 77 l30 42 363 0 362 1 0 -82 0 -83 -532 -532 -532 -532 -30 16
c-49 26 -169 22 -234 -6 -70 -31 -154 -122 -177 -192 -37 -111 0 -256 87 -334
63 -58 120 -80 208 -80 182 0 314 133 314 315 0 55 -6 87 -21 120 l-21 45 552
553 551 552 3 190 3 190 255 0 254 0 0 -384 0 -384 -30 -12 c-38 -16 -105 -88
-126 -137 -22 -52 -23 -138 -1 -195 22 -57 100 -132 153 -148 l39 -12 0 -146
0 -145 -41 -14 c-100 -33 -164 -125 -164 -234 1 -110 59 -196 169 -247 90 -42
195 -17 272 65 57 60 73 98 74 178 0 81 -17 124 -72 179 -20 20 -53 44 -74 53
l-38 18 -1 150 0 151 36 13 c53 19 109 74 134 133 55 129 -10 291 -137 345
l-33 13 0 380 0 380 280 0 280 0 0 -292 -1 -293 -32 -20 c-47 -29 -79 -98 -74
-157 15 -173 258 -232 353 -88 56 84 34 196 -48 249 l-38 24 0 289 0 288 228
-2 227 -3 3 -751 2 -750 -50 -13 c-132 -34 -266 -139 -323 -252 -104 -207 -66
-449 95 -610 179 -178 465 -199 665 -49 71 54 136 139 169 220 32 79 44 227
24 311 -20 84 -78 187 -143 252 -59 57 -166 118 -234 132 l-33 7 0 744 c0 409
0 747 0 752 0 4 124 8 275 10 l275 2 0 -228 0 -228 -30 -17 c-31 -19 -73 -83
-84 -130 -15 -66 33 -151 107 -188 61 -32 170 -24 222 15 69 53 92 143 56 221
-17 39 -81 105 -101 105 -6 0 -10 87 -10 225 l0 225 280 0 280 0 0 -559 0
-559 -36 -21 c-77 -46 -96 -170 -38 -254 94 -136 308 -104 355 52 25 84 -16
180 -91 211 l-30 12 0 559 0 559 103 0 104 0 399 -402 c219 -222 546 -551 726
-733 l328 -330 -27 -55 c-56 -114 -29 -262 63 -354 62 -62 134 -91 224 -90 90
0 151 27 217 96 61 63 87 127 87 218 1 62 -4 85 -27 131 -32 67 -99 132 -165
162 -54 24 -182 29 -219 9 -20 -11 -66 34 -685 659 -364 369 -664 674 -666
679 -1 4 16 10 39 13 74 10 74 10 77 262 l3 225 237 0 237 0 237 -237 238
-238 -7 -52 c-25 -218 230 -342 366 -177 80 98 61 254 -40 321 -38 25 -52 28
-121 28 l-78 0 -177 178 -178 177 430 0 430 0 19 -35 c46 -86 182 -122 276
-73 64 33 103 93 108 167 5 72 -10 121 -51 168 -96 109 -277 89 -343 -38 l-15
-29 -784 0 -785 0 0 245 0 245 463 0 464 0 11 -24 c18 -40 73 -96 114 -117
132 -67 305 0 351 136 35 102 16 185 -58 262 -82 84 -191 102 -294 49 -34 -18
-99 -88 -111 -121 l-9 -25 -466 0 -465 0 0 355 0 355 784 0 783 0 7 -38 c17
-106 140 -265 252 -324 111 -60 284 -76 403 -39 243 76 399 358 336 606 -44
170 -170 310 -329 365 -240 82 -507 -25 -620 -250 -20 -40 -39 -91 -42 -112
l-7 -38 -331 0 -331 0 423 422 422 423 0 147 0 148 38 19 c111 57 164 181 129
302 -21 71 -64 121 -133 155 -106 52 -220 30 -297 -56 -52 -56 -67 -96 -67
-173 0 -102 55 -191 145 -234 l30 -14 -5 -111 -5 -110 -340 -339 -340 -338 -3
270 -2 269 36 33 c131 114 78 337 -87 367 -165 30 -280 -136 -205 -297 17 -35
38 -60 65 -79 l41 -27 0 -388 0 -389 -375 0 -375 0 0 512 0 513 436 436 437
437 43 -33 c107 -82 239 -66 331 39 93 105 80 267 -27 358 -47 41 -97 58 -169
58 -62 0 -105 -17 -155 -60 -43 -38 -73 -92 -82 -148 -6 -36 -43 -76 -410
-443 l-404 -404 0 550 0 550 528 527 527 528 45 -17 c64 -24 164 -22 222 4 62
28 134 96 166 158 23 43 27 62 27 140 0 105 -21 157 -87 226 -146 151 -401
114 -503 -72 -40 -74 -46 -178 -16 -264 l21 -60 -539 -540 c-296 -297 -544
-550 -550 -562 -7 -14 -11 -123 -11 -322 l0 -301 -270 0 -270 0 0 458 0 457
36 20 c48 26 111 99 124 144 18 64 12 151 -14 207 -56 121 -204 178 -321 125
-51 -23 -118 -98 -133 -149 -17 -55 -15 -156 3 -200 18 -42 77 -107 118 -128
l27 -15 0 -459 0 -460 -572 0 -573 0 2 336 2 337 29 17 c126 77 132 245 12
353 l-41 38 0 261 0 262 52 13 c80 21 148 62 219 133 105 105 150 213 150 360
0 144 -48 260 -150 360 -127 126 -310 176 -484 134z m2054 -4604 l0 -1830
-1930 0 -1930 0 0 1830 0 1830 1930 0 1930 0 0 -1830z"/>
<path d="M1730 9437 c-88 -25 -157 -83 -202 -170 -33 -64 -37 -184 -8 -259 27
-73 92 -141 168 -176 69 -32 173 -36 237 -8 l39 17 466 -466 465 -465 -4 -51
c-12 -178 174 -280 323 -176 16 11 40 45 53 75 44 94 17 198 -66 257 -39 27
-50 30 -122 30 l-78 -1 -457 457 -457 457 19 48 c30 76 26 185 -9 256 -32 65
-100 131 -162 159 -57 25 -148 32 -205 16z"/>
<path d="M2155 8151 c-164 -76 -166 -298 -3 -382 100 -51 230 -3 278 103 26
57 25 112 -4 174 -49 105 -170 152 -271 105z"/>
<path d="M8198 8160 c-118 -35 -168 -193 -91 -288 108 -134 315 -96 351 66 34
147 -108 268 -260 222z"/>
<path d="M1250 6821 c-71 -23 -132 -75 -165 -141 -10 -19 -20 -62 -23 -96 -19
-242 255 -384 427 -221 132 125 99 356 -63 439 -43 22 -136 32 -176 19z"/>
<path d="M8305 2881 c-119 -54 -151 -207 -63 -307 41 -46 77 -64 132 -64 81 0
134 33 167 105 50 109 -8 244 -119 275 -51 14 -71 12 -117 -9z"/>
<path d="M5745 2351 c-135 -62 -161 -256 -48 -363 109 -104 290 -63 350 79 18
45 16 131 -6 178 -19 43 -78 100 -118 116 -41 15 -135 10 -178 -10z"/>
<path d="M6485 1681 c-152 -70 -154 -285 -3 -362 41 -21 120 -25 165 -8 38 14
92 67 109 108 28 68 11 165 -39 219 -56 61 -155 79 -232 43z"/>
</g>
</svg>
